
<svg version="1.0" xmlns="http://www.w3.org/2000/svg"
 width="302" height="164" viewBox="0 0 866.000000 650.000000"
 preserveAspectRatio="xMidYMid meet">



<g transform="translate(0.000000,650.000000) scale(0.100000,-0.100000)"
fill="#000000" stroke="none">
<path d="M4796 5570 c-353 -56 -627 -256 -734 -538 -23 -59 -26 -82 -27 -197
0 -109 4 -142 24 -205 48 -153 149 -328 266 -459 43 -48 55 -69 51 -85 -17
-67 -197 -949 -194 -951 2 -2 56 219 121 492 l117 495 -50 55 c-67 73 -171
231 -215 327 -71 153 -94 328 -60 456 49 186 192 346 400 450 271 134 599 139
894 11 138 -59 197 -98 292 -191 99 -98 146 -181 156 -274 5 -47 9 -56 22 -51
129 50 327 64 451 31 242 -63 451 -253 516 -471 13 -42 18 -92 18 -170 0 -97
-4 -121 -31 -198 -39 -110 -82 -183 -156 -263 -71 -76 -133 -118 -253 -171
-134 -59 -192 -101 -242 -177 -56 -85 -157 -273 -257 -474 -57 -117 -84 -161
-94 -157 -8 3 -55 13 -105 23 -116 21 -506 24 -641 4 -208 -32 -481 -98 -655
-161 -86 -31 -51 -24 73 13 465 141 996 169 1354 70 19 -5 32 15 132 213 159
313 234 442 283 486 23 22 85 59 138 83 194 91 204 98 296 189 81 80 98 103
142 195 28 58 58 134 67 170 19 84 19 249 0 325 -62 243 -285 462 -545 534
-126 35 -260 37 -415 6 -29 -6 -31 -4 -49 47 -99 284 -488 511 -896 523 -74 2
-162 0 -194 -5z"/>
<path d="M4266 4729 c-19 -116 44 -265 168 -397 81 -86 92 -80 23 11 -110 144
-161 252 -176 372 l-7 60 -8 -46z"/>
<path d="M5180 4190 c7 -14 40 -51 73 -83 138 -133 346 -184 545 -133 43 11
36 12 -88 12 -220 0 -344 47 -499 189 -35 32 -41 35 -31 15z"/>
<path d="M6651 4089 c-32 -106 -114 -223 -198 -283 -24 -16 -41 -31 -39 -33
10 -10 106 46 144 85 48 48 98 144 108 208 9 61 0 74 -15 23z"/>
<path d="M6508 4052 c-23 -64 -77 -125 -140 -156 -59 -29 -44 -35 17 -7 65 30
109 83 135 164 18 56 7 54 -12 -1z"/>
<path d="M4662 3865 c-45 -172 -104 -429 -151 -660 -74 -374 -63 -374 29 0 65
262 163 738 158 764 -2 9 -18 -38 -36 -104z"/>
<path d="M4970 3937 c0 -1 -24 -99 -54 -217 -50 -198 -126 -562 -140 -670 l-6
-45 15 45 c58 176 212 890 191 890 -3 0 -6 -1 -6 -3z"/>
<path d="M5247 3878 c-3 -13 -24 -94 -47 -182 -41 -159 -93 -398 -105 -491 -4
-27 -9 -59 -12 -70 -3 -11 -3 -17 1 -14 28 27 192 757 173 775 -2 3 -7 -5 -10
-18z"/>
<path d="M1958 3258 c54 -73 101 -138 105 -145 4 -7 -32 -55 -93 -122 -55 -61
-100 -113 -100 -116 0 -3 483 -4 1072 -3 l1073 3 57 235 c31 129 57 245 58
258 l0 22 -1135 0 -1135 0 98 -132z"/>
<path d="M6130 3130 l-130 -260 466 0 c442 0 466 1 453 17 -8 10 -56 64 -106
121 -51 57 -93 107 -93 110 0 4 47 65 105 135 58 71 105 131 105 133 0 2 -151
4 -335 4 l-335 0 -130 -260z"/>
<path d="M4171 3104 c0 -11 3 -14 6 -6 3 7 2 16 -1 19 -3 4 -6 -2 -5 -13z"/>
<path d="M6589 2798 c-30 -25 -39 -46 -79 -179 -23 -74 -56 -160 -73 -192 -27
-51 -38 -62 -84 -82 -62 -28 -73 -59 -24 -70 48 -10 55 -26 42 -100 -6 -35
-41 -167 -76 -292 -36 -126 -65 -237 -65 -248 0 -11 16 -38 34 -60 l34 -40 32
30 c43 41 120 149 120 169 0 27 -16 18 -59 -31 -23 -26 -51 -53 -63 -61 l-21
-15 6 79 c9 115 55 379 79 449 11 32 29 72 39 87 19 27 24 28 100 28 77 0 79
1 79 24 0 22 -5 24 -65 31 -51 5 -65 10 -65 23 0 21 59 187 92 262 33 73 73
120 104 120 32 0 31 24 -3 48 -40 28 -67 34 -84 20z"/>
<path d="M3723 2470 c-30 -12 -41 -37 -58 -132 -24 -131 -40 -164 -91 -194
-53 -31 -53 -50 -1 -46 20 2 37 0 37 -5 0 -4 -7 -75 -15 -158 -21 -218 -22
-213 21 -231 19 -8 44 -12 53 -9 19 6 101 115 101 134 0 21 -17 11 -58 -34
-46 -51 -57 -55 -66 -22 -10 36 -6 238 5 287 14 61 32 78 102 92 51 11 79 29
65 43 -2 2 -30 -3 -62 -11 -32 -8 -61 -13 -64 -9 -10 10 39 194 62 227 12 18
32 37 44 43 29 13 28 25 -2 25 -13 0 -30 2 -38 4 -7 3 -23 1 -35 -4z"/>
<path d="M5777 2334 c-26 -42 -45 -79 -41 -83 3 -3 24 14 45 38 l39 44 0 -30
c0 -77 -65 -370 -116 -522 -24 -70 -24 -75 -7 -93 32 -36 55 -19 92 67 106
253 172 380 258 496 37 51 47 59 55 46 21 -38 -36 -340 -103 -542 l-40 -120
22 -17 c34 -28 46 -22 67 35 11 29 46 106 78 170 66 135 64 173 -3 71 -7 -11
-11 -13 -8 -4 13 47 55 256 65 322 12 84 8 101 -38 150 -23 26 -26 26 -53 13
-37 -20 -102 -112 -189 -271 -40 -71 -69 -120 -66 -109 16 59 76 311 76 320 0
12 -69 95 -79 95 -3 0 -28 -34 -54 -76z"/>
<path d="M5421 2370 c-105 -115 -241 -445 -241 -584 0 -41 5 -55 27 -78 15
-15 32 -28 39 -28 34 0 138 138 235 312 29 53 54 96 55 95 1 -1 -10 -65 -26
-142 -43 -215 -43 -219 -19 -249 29 -37 47 -33 59 17 6 23 26 83 45 132 43
111 44 131 3 85 l-30 -35 7 40 c6 37 66 293 80 341 5 14 -2 31 -20 52 -15 18
-30 32 -35 32 -4 0 -20 -39 -35 -87 -58 -186 -263 -523 -319 -523 -14 0 1 99
29 180 35 106 128 288 171 339 37 43 49 46 97 26 32 -13 19 29 -21 68 -46 45
-65 46 -101 7z"/>
<path d="M5107 2372 c-20 -22 -54 -97 -128 -282 -32 -80 -58 -139 -59 -132 0
20 40 201 63 281 20 72 20 74 2 87 -39 28 -52 18 -104 -83 -54 -105 -55 -145
-2 -66 23 34 31 41 27 23 -21 -89 -76 -397 -76 -428 0 -31 5 -41 29 -55 16 -9
31 -17 34 -17 8 0 16 27 47 145 16 61 40 142 54 180 38 101 118 265 129 265
10 0 4 -91 -9 -136 -7 -26 39 -85 55 -69 13 14 31 126 31 202 l0 63 -39 19
c-37 19 -39 19 -54 3z"/>
<path d="M4690 2301 c-5 -11 -22 -52 -36 -93 -35 -98 -132 -300 -177 -371 -20
-32 -44 -57 -53 -57 -35 0 -3 287 47 430 10 30 19 55 19 56 0 1 -14 7 -31 14
-25 11 -33 11 -44 -1 -12 -12 -55 -116 -72 -174 -6 -20 -6 -20 16 0 l23 20 -6
-35 c-17 -94 -26 -182 -26 -248 0 -71 1 -73 33 -92 70 -43 77 -36 189 178 34
67 63 120 64 119 1 -1 -7 -51 -17 -112 -24 -146 -24 -170 3 -195 42 -38 52
-28 78 80 24 102 22 139 -4 79 -10 -23 -15 -28 -15 -15 -1 28 68 335 84 373
13 30 12 34 -8 48 -29 20 -54 19 -67 -4z"/>
<path d="M3985 2218 c-76 -89 -156 -267 -170 -379 -8 -67 2 -91 45 -109 28
-11 34 -11 58 7 38 27 121 140 173 233 24 43 45 78 46 76 1 -1 -5 -46 -12
-101 -8 -55 -15 -118 -15 -141 0 -36 3 -42 35 -57 39 -19 40 -18 49 43 4 25
17 71 30 102 13 32 21 60 17 63 -3 4 -17 -8 -32 -26 l-26 -32 13 84 c7 46 18
117 25 158 13 72 13 74 -10 92 -36 30 -48 23 -61 -33 -34 -148 -234 -458 -271
-421 -31 31 69 290 147 381 30 36 41 42 75 42 49 0 49 10 0 38 -55 31 -74 28
-116 -20z"/>
<path d="M3429 2121 c-21 -16 -24 -25 -21 -75 4 -58 13 -67 45 -43 20 14 32
74 23 111 -8 31 -16 32 -47 7z"/>
<path d="M3339 2080 c-46 -24 -89 -75 -89 -103 0 -12 18 -47 40 -77 111 -154
107 -183 -30 -217 -41 -11 -75 -23 -75 -29 0 -13 116 -17 148 -5 15 6 30 19
34 28 3 10 21 33 40 51 18 18 33 41 33 50 0 10 -25 61 -55 114 -30 53 -55 106
-55 119 0 13 14 38 32 56 36 37 30 41 -23 13z"/>
<path d="M2480 2030 c-63 -43 -81 -50 -115 -48 -36 3 -40 1 -43 -22 -5 -33
-29 -58 -137 -140 -112 -85 -168 -142 -163 -166 2 -11 22 -24 52 -35 65 -22
87 -15 52 18 -14 13 -26 27 -26 32 0 19 62 87 135 146 44 36 83 65 87 65 10 0
10 -46 2 -89 -4 -20 -16 -37 -32 -45 l-26 -13 24 -13 c20 -11 22 -17 17 -60
-3 -26 -13 -64 -21 -84 -13 -31 -19 -36 -39 -31 -22 6 -23 4 -22 -47 0 -52 1
-53 31 -56 17 -2 35 3 41 10 12 15 40 120 51 193 7 46 10 50 32 46 14 -2 133
-44 265 -93 132 -50 261 -93 286 -95 41 -5 48 -2 72 27 44 51 33 77 -18 44
-32 -21 -67 -14 -215 40 -63 24 -169 60 -235 81 -66 20 -133 44 -149 52 -29
15 -29 15 -23 85 3 38 13 81 22 94 16 25 158 98 213 109 36 8 62 -7 62 -35 0
-31 -61 -138 -96 -170 -19 -17 -55 -36 -80 -42 -24 -7 -44 -16 -44 -20 0 -13
98 -9 133 5 87 37 184 209 148 265 -6 11 -123 42 -156 42 -5 0 -44 -23 -85
-50z"/>
<path d="M3070 2025 c-7 -8 -25 -15 -39 -15 -39 0 -66 -34 -91 -114 -16 -47
-28 -70 -41 -73 -21 -6 -26 -23 -8 -23 8 0 10 -22 7 -70 -3 -44 -1 -76 6 -85
6 -9 37 -22 70 -31 53 -14 60 -14 84 2 50 33 147 158 136 176 -3 5 -36 -22
-72 -60 -37 -38 -82 -77 -101 -87 -33 -17 -35 -17 -48 1 -8 10 -13 45 -13 85
0 74 4 79 66 79 39 0 68 12 102 43 25 23 28 59 10 136 -9 42 -15 51 -33 51
-13 0 -28 -7 -35 -15z m9 -72 c16 -55 13 -78 -8 -97 -18 -17 -91 -39 -99 -31
-5 4 43 110 64 143 21 31 32 28 43 -15z"/>
<path d="M4135 1474 c-667 -35 -1299 -146 -1855 -326 -136 -44 -434 -158 -428
-164 2 -2 53 15 113 37 403 148 963 261 1560 316 268 24 1004 25 1295 1 516
-43 959 -114 1490 -237 118 -28 215 -49 217 -48 1 2 13 49 26 106 17 71 21
104 13 106 -50 16 -571 104 -776 131 -437 59 -681 75 -1160 78 -234 2 -456 2
-495 0z"/>
</g>
</svg>
